<?xml version="1.0" encoding="utf-8"?>
<!-- Uploaded to: SVG Repo, www.svgrepo.com, Generator: SVG Repo Mixer Tools -->
<svg width="800px" height="800px" viewBox="0 0 1024 1024" class="icon"  version="1.1" xmlns="http://www.w3.org/2000/svg"><path d="M605.6 521v219.5c0 13.3-10.8 24.1-24.1 24.1H433.4V496.9h148.1c6.2 0 11.8 2.3 16.1 6.2l7.3 12.2c0.5 1.8 0.7 3.7 0.7 5.7zM335.6 496.9v267.7H185.4c-13.3 0-24.1-10.9-24.1-24.1V521c0-13.3 10.9-24.1 24.1-24.1h150.2z" fill="#DC0C55" /><path d="M856.6 688.5c4.8 7.9 2.2 18.3-5.8 23.1l-82.5 49.2-108.4-181.4 95.6-60 101.1 169.1zM712.4 447.3L617.2 507c-1.9-4.8-4.7-9.2-8.3-12.8L502.4 315.9l82.2-49.2c8.1-4.8 18.6-2.1 23.4 6l104.4 174.6z" fill="#FE97AC" /><path d="M785.8 338.6c13.1 30.5 6 87.6-31.8 140.8l-42.4-70.3c-1.5-19.8-0.9-69.7 18.3-88.7 6.1-6.1 13.5-8.5 22.7-7.6 19.1 1.9 28.5 15.1 33.2 25.8zM761.3 495.2c59-5.8 108.3 13.7 127.7 37.3 8.8 10.7 11.2 21.6 7.4 32.5-2.3 6.3-6.2 10.3-12.1 12.5-22.2 7.7-65.2-13.2-81.6-22.9l-41.4-59.4z" fill="#FAF7A6" /><path d="M755.4 502.5l7.7 12.1-4 2.5-8.2-11.8z" fill="#EF4668" /><path d="M750.9 505.3l8.2 11.8-3.6 2.3-7.4-12.3zM748.1 507.1l7.4 12.3-95.6 60-7.3-12.3z" fill="#EF4668" /><path d="M719.7 459.6l28.4 47.5-95.5 60-28.5-47.6z" fill="#FAF7A6" /><path d="M736.2 484.2l14.7 21.1-2.8 1.8-28.4-47.5 4.2-2.6 16 26.6zM721.2 441.7l7.6 12.2-4.9 3.1-7.4-12.3zM723.9 457l-4.2 2.6-7.3-12.3 4.1-2.6z" fill="#EF4668" /><path d="M712.4 447.3l7.3 12.3-95.6 59.9-5.9-9.9c-0.3-0.9-0.6-1.8-1-2.6l95.2-59.7zM889 532.5c-19.4-23.6-68.6-43.1-127.7-37.3l41.4 59.4c16.4 9.7 59.4 30.6 81.6 22.9 5.9-2.1 9.8-6.1 12.1-12.5 3.8-10.9 1.4-21.8-7.4-32.5zM729.9 320.4c-19.2 19-19.9 68.9-18.3 88.7l42.4 70.3c37.8-53.2 44.9-110.2 31.8-140.8-4.6-10.7-14.1-23.9-33.1-25.7-9.2-1-16.7 1.4-22.8 7.5z m69 12.5c16.5 38.4 4.7 96.9-28.3 147.3 53.7-2.4 105.8 14.4 129.5 43.2 11.8 14.4 15.3 30.9 9.8 46.4-3.8 10.4-10.8 17.5-20.8 21.1-4.9 1.7-10.3 2.5-15.9 2.5-24.9 0-55-14.2-69.9-22.3L696.8 393.3c0-23.6 3.2-63.5 23.1-83.1 9.2-9.1 20.7-13 34.2-11.7 20.2 2.1 36.1 14.3 44.8 34.4zM696.8 393.3l106.3 177.8c-5.3-2.8-8.6-4.8-9.2-5.2l-2.1-2L759 517l4-2.5-7.7-12.1-4.5 2.8-14.7-21.1 3.7-0.6-16-26.6 4.9-3.1-7.6-12.1-4.7 2.9-18.8-31.1-0.2-1.7c0-0.8-0.6-8.1-0.6-18.5zM652.6 567.1l7.3 12.3-7.4 4.6-7.6-12.1z" fill="#EF4668" /><path d="M856.6 688.5L755.5 519.4l3.6-2.3 32.8 46.9 2.1 2c0.5 0.4 3.9 2.4 9.2 5.2l65.7 110.1c8.8 14.7 4 33.8-10.7 42.6l-94.7 56.6-143.6-240.3v-18.1l4.2-2.7 28.5 47.6-7.7 4.8 7.6 12.1 7.4-4.6 108.5 181.4 82.5-49.2c7.9-4.8 10.5-15.1 5.7-23z" fill="#EF4668" /><path d="M624.1 519.5l-4.2 2.7V521c0-4-0.6-7.8-1.7-11.4l5.9 9.9z" fill="#EF4668" /><path d="M619.9 521v1.2l-1.7 1.1-7.6-12 6.2-3.9 1.3 2.3c1.2 3.5 1.8 7.3 1.8 11.3zM617.2 507c0.4 0.8 0.7 1.7 1 2.6l-1.3-2.3 0.3-0.3z" fill="#EF4668" /><path d="M616.9 507.3l-7.9-13.1c3.6 3.7 6.4 8 8.3 12.8l-0.4 0.3zM604.9 515.3l-7.3-12.2c3.6 3.1 6.2 7.4 7.3 12.2z" fill="#EF4668" /><path d="M604.9 515.3c-1.2-4.8-3.7-9.1-7.3-12.2l-12.1-20.3c9.2 1 17.4 5.2 23.4 11.4l7.9 13.1-6.2 3.9 7.6 12 1.7-1.1v18.1l-15-24.9z" fill="#EF4668" /><path d="M608 272.8c-4.8-8.1-15.3-10.8-23.4-6L502.4 316l106.5 178.3c-6.1-6.2-14.2-10.4-23.4-11.4L482.8 311l94.5-56.5c14.8-8.9 34.1-4 43 10.8l76.5 128c0 10.4 0.6 17.7 0.7 18.6l0.2 1.7 18.8 31.1-4.1 2.6L608 272.8zM419.1 764.6h14.3v7.1h-14.3zM419.1 496.9h14.3v267.7h-14.3zM419.1 489.7h14.3v7.1h-14.3zM427 338v109.8h-0.1c0 4-3.1 7.2-7 7.2s-7.1-3.2-7.1-7.2h-0.1V338h0.1c0-3.9 3.2-7.2 7.1-7.2 3.9 0 7 3.3 7.1 7.2z" fill="#EF4668" /><path d="M349.8 496.9h69.3v267.7h-69.3z" fill="#FAF7A6" /><path d="M431.6 241.4l-14.2 3.9-11.3-9.5-0.7 14.8-12.6 7.8 13.8 5.2 3.6 14.4 9.3-11.6 14.8 1.1-8.2-12.4 5.5-13.7z m-10.2 29.7L408 287.8l-5.2-20.8-20.1-7.6L401 248l1-21.5 16.5 13.9 20.7-5.7-8.1 19.9 11.8 17.9-21.5-1.4z" fill="#EF4668" /><path d="M406 235.8l11.3 9.5 14.3-3.9-5.6 13.7 8.1 12.4-14.7-1.1-9.3 11.6-3.6-14.4-13.8-5.2 12.6-7.8z" fill="#FAF7A6" /><path d="M335.6 764.6h14.2v7.1h-14.2zM335.6 496.9h14.2v267.7h-14.2zM335.6 489.7h14.2v7.1h-14.2zM313.5 355.2l35.7 81.5c0.4 0.9 0.6 1.9 0.6 2.8 0 4-3.2 7.2-7.1 7.2-2.9 0-5.4-1.8-6.5-4.4h-0.1l-35.6-81.5c-0.4-0.9-0.6-1.8-0.6-2.8 0-4 3.2-7.2 7.1-7.2 2.9 0 5.4 1.8 6.5 4.4zM275.8 451.5c1.6 1.3 2.6 3.3 2.6 5.5 0 4-3.2 7.2-7.1 7.2-1.8 0-3.3-0.6-4.5-1.7l9-11zM271.3 449.9c1.4 0 2.8 0.4 4 1.2 0.2 0.1 0.4 0.3 0.5 0.4l-9.1 11c-0.2-0.1-0.4-0.3-0.4-0.4-1.3-1.2-2.1-3.1-2.1-5.1 0-3.9 3.2-7.1 7.1-7.1z" fill="#EF4668" /><path d="M266.3 462.1l-51.8-42.6c1.2 0.7 2.5 1.2 3.9 1.2 3.9 0 7-3.2 7-7.2 0-2.5-1.2-4.7-3.1-6v-0.1l53 43.6c-1.2-0.8-2.6-1.2-4-1.2-3.9 0-7.1 3.2-7.1 7.2 0 2 0.8 3.9 2.1 5.1z" fill="#EF4668" /><path d="M235.6 251.2l-15-18.3 23.7-0.8 12.8-19.8 8 22.3 22.8 6.1-18.7 14.4 1.3 23.6-19.5-13.3-22.1 8.5z" fill="#FAF7A6" /><path d="M244.3 232.1l-23.7 0.7 15 18.3-6.7 22.7 22.1-8.5 19.5 13.4-1.2-23.6 18.7-14.4-22.9-6.1-7.9-22.3-12.9 19.8z m-16.6 20.7L206 226.1l34.3-1 18.7-28.8 11.6 32.4 33.2 8.8-27.2 21 1.9 34.3-28.5-19.4-32 12.4 9.7-33zM222.3 407.6c1.9 1.2 3.1 3.5 3.1 6 0 4-3.1 7.2-7 7.2-1.4 0-2.8-0.4-3.9-1.2-0.4-0.3-0.8-0.6-1.1-1-0.1 0-0.2-0.1-0.1-0.2l9-10.8c0-0.1 0 0 0 0z" fill="#EF4668" /><path d="M222.2 407.6l-8.9 10.9c-1.3-1.2-2-3-2-4.9 0-4 3.2-7.2 7.1-7.2 1.4-0.1 2.8 0.4 3.8 1.2z" fill="#EF4668" /><path d="M213.3 418.4c-0.1 0.1 0 0.2 0.1 0.2l-0.1-0.2zM161.2 740.5c0 13.3 10.9 24.1 24.1 24.1h150.2v7.1h14.2v-7.1H419v7.1h14.3v-7.1h148.1c13.4 0 24.1-10.9 24.1-24.1V521c0-2-0.3-3.9-0.7-5.7l15 24.9v200.3c0 21.2-17.2 38.4-38.4 38.4h-396c-21.2 0-38.4-17.2-38.4-38.4V521c0-21.2 17.2-38.4 38.4-38.4h396.1c1.3 0 2.7 0.1 4 0.2l12.1 20.3c-4.3-3.9-9.9-6.2-16.1-6.2H433.4v-7.1h-14.3v7.1h-69.3v-7.1h-14.2v7.1H185.4c-13.3 0-24.1 10.9-24.1 24.1v219.5zM187.6 353.4l-8.1 19.9 11.8 18-21.5-1.6-13.4 16.8-5.2-20.8-20.1-7.7 18.3-11.3 1-21.5 16.4 13.8 20.8-5.6z m-13.1 20.5l5.5-13.7-14.2 3.9-11.3-9.6-0.7 14.8-12.6 7.8 13.9 5.3 3.6 14.3 9.2-11.6 14.8 1.1-8.2-12.3z" fill="#EF4668" /><path d="M158.7 396.7l-3.6-14.3-13.9-5.3 12.6-7.8 0.7-14.8 11.3 9.6 14.2-3.9-5.5 13.7 8.1 12.3-14.8-1.1z" fill="#FAF7A6" /></svg>