<?xml version="1.0" ?>
<!-- Uploaded to: SVG Repo, www.svgrepo.com, Generator: SVG Repo Mixer Tools -->
<svg width="800px" height="800px" viewBox="0 0 512 512" version="1.1" xml:space="preserve" xmlns="http://www.w3.org/2000/svg" xmlns:xlink="http://www.w3.org/1999/xlink">
<style type="text/css">
	.st0{display:none;}
	.st1{display:inline;}
	.st2{fill:none;stroke:#B3B3B3;stroke-miterlimit:10;}
	.st3{fill:none;stroke:#ED1C24;stroke-miterlimit:10;}
	.st4{fill:#F9C04A;}
	.st5{fill:#FFFFFF;stroke:#000000;stroke-width:10;stroke-linecap:round;stroke-linejoin:round;stroke-miterlimit:10;}
	.st6{fill:#DEF6FC;}
	.st7{fill:#FFDA9F;}
	.st8{fill:#FFFFFF;}
	.st9{fill:#FF5751;}
	.st10{fill:#FF908A;}
	.st11{fill:#133260;}
	.st12{fill:#7782BB;}
	.st13{fill:#96A5D6;}
	.st14{fill:#FF5741;}
	.st15{fill:#43527A;}
	.st16{fill:#5E7296;}
	.st17{fill:none;stroke:#133260;stroke-width:9;stroke-linecap:round;stroke-linejoin:round;stroke-miterlimit:10;}
	.st18{fill:#83D689;}
	.st19{fill:#B5F4B8;}
	.st20{fill:#9BC5FF;}
	.st21{fill:#B8D8FF;}
	.st22{fill:#F24133;}
	.st23{fill:#589FFF;}
	.st24{fill:#7180BC;}
	.st25{fill:#93A3D8;}
	.st26{fill:#FF8103;}
	.st27{fill:#FF9D4D;}
	.st28{fill:#BC8D66;}
	.st29{fill:#CEA282;}
	.st30{fill:#FFDDA1;}
	.st31{fill:#FFF1DC;}
	.st32{fill:#7F6674;}
	.st33{fill:#937A89;}
	.st34{fill:#04398E;}
	.st35{fill:#A6D1FF;}
	.st36{fill:#EAA62D;}
	.st37{fill:#C5DFFF;}
	.st38{fill:#D6A47F;}
	.st39{fill:#99A4D6;}
</style>
<g class="st0" id="Layer_31">
<g class="st1">
<g>
<g>
<ellipse class="st2" cx="256" cy="256" rx="248.1" ry="248.3"/>
<path class="st2" d="M398.8,504.5H113.2c-18.8,0-34.1-15.3-34.1-34.1V41.6c0-18.8,15.3-34.1,34.1-34.1h285.5      c18.8,0,34.1,15.3,34.1,34.1v428.9C432.9,489.3,417.6,504.5,398.8,504.5z"/>
<path class="st2" d="M7.9,399.8V112.2c0-16.4,13.3-29.8,29.8-29.8h436.7c16.4,0,29.8,13.3,29.8,29.8v287.6      c0,16.4-13.3,29.8-29.8,29.8H37.6C21.2,429.6,7.9,416.2,7.9,399.8z"/>
<path class="st2" d="M440.4,469.9H71.6c-16.4,0-29.8-13.3-29.8-29.8V71.9c0-16.4,13.3-29.8,29.8-29.8h368.8      c16.4,0,29.8,13.3,29.8,29.8v368.2C470.2,456.5,456.8,469.9,440.4,469.9z"/>
</g>
<rect class="st3" height="497" transform="matrix(-1.836970e-16 1 -1 -1.836970e-16 512 5.684342e-14)" width="497" x="7.5" y="7.5"/>
</g>
</g>
</g>
<g id="Layer_32">
<g>
<g>
<g>
<path class="st36" d="M307.1,154.2H204.9v-40.7c0-28.2,22.9-51.1,51.1-51.1h0c28.2,0,51.1,22.9,51.1,51.1V154.2z"/>
<path class="st7" d="M268.6,64c-4-1-8.3-1.6-12.6-1.6h0c-28.2,0-51.1,22.9-51.1,51.1v40.7h25.3v-40.7      C230.2,89.6,246.5,69.6,268.6,64z"/>
<g>
<path class="st20" d="M437.6,507.4H74.4c-16.9,0-30.5-13.7-30.5-30.5V160.5h424.3v316.4C468.2,493.8,454.5,507.4,437.6,507.4z"/>
<path class="st37" d="M69.1,476.9V160.5H43.8v316.4c0,16.9,13.7,30.5,30.5,30.5h25.3C82.8,507.4,69.1,493.8,69.1,476.9z"/>
<path class="st23" d="M480.1,217.1H31.9c-11.5,0-20.8-9.3-20.8-20.8v-44.4c0-11.5,9.3-20.8,20.8-20.8h448.2       c11.5,0,20.8,9.3,20.8,20.8v44.4C500.9,207.8,491.6,217.1,480.1,217.1z"/>
<path class="st20" d="M31.9,131.1c-11.5,0-20.8,9.3-20.8,20.8v44.4c0,11.5,9.3,20.8,20.8,20.8h4.5v-86H31.9z"/>
</g>
</g>
<polygon class="st4" points="307.1,375 256,338.9 204.9,375 204.9,130.6 307.1,130.6    "/>
<g>
<polygon class="st7" points="230.2,130.6 204.9,130.6 204.9,375 230.2,357.1     "/>
</g>
</g>
<path class="st11" d="M480.1,126.5H350.9c15.7-4.7,29.6-11,41.3-18.7c19.3-12.7,32.2-29.1,36.1-46.2c4.8-20.5-3.7-40-22.7-52    C390.9,0.3,375.7-2.3,360.6,2c-15.5,4.4-30.8,15.9-45.4,34.3c-9.4,11.8-17.1,24.5-22.7,35.1c-9.8-8.5-22.5-13.6-36.4-13.6    c-14.1,0-27,5.3-36.9,14c-27.3-51.2-54.3-65.6-68.4-69.6c-14.9-4.3-29.9-1.7-44.3,7.4c-19,12.1-27.5,31.5-22.7,52    c4,17.1,16.8,33.5,36.1,46.2c11.7,7.7,25.6,14,41.3,18.7H31.9c-14,0-25.3,11.4-25.3,25.3v44.4c0,14,11.4,25.3,25.3,25.3h7.4v255.2    c0,19.4,15.7,35.1,35.1,35.1h363.3c19.4,0,35.1-15.7,35.1-35.1V221.7h7.4c14,0,25.3-11.4,25.3-25.3v-44.4    C505.4,137.9,494.1,126.5,480.1,126.5z M363,10.8c12.6-3.6,25.2-1.4,37.7,6.5c15.8,10,22.6,25.4,18.7,42.3    c-5.8,25-37.6,56.9-107.8,65.9v-12c0-13.3-4.7-25.6-12.5-35.2C310.3,56.9,333.5,19.2,363,10.8z M256,67    c25.7,0,46.5,20.9,46.5,46.5v12.6h-93.1v-12.6C209.5,87.8,230.3,67,256,67z M302.5,135.2v231l-43.9-31c-0.8-0.6-1.7-0.8-2.6-0.8    s-1.8,0.3-2.6,0.8l-43.9,31v-231H302.5z M92.6,59.6c-3.9-16.8,2.9-32.2,18.7-42.3c12.4-7.8,24.4-9.9,37-6.4    c29,8.3,52.5,45.5,64.3,67.9c-7.6,9.5-12.1,21.6-12.1,34.6v12C130.1,116.5,98.4,84.7,92.6,59.6z M31.9,212.5    c-8.9,0-16.2-7.3-16.2-16.2v-44.4c0-8.9,7.3-16.2,16.2-16.2h168.4v76.9H31.9z M463.6,476.9c0,14.3-11.7,26-26,26H74.4    c-14.3,0-26-11.7-26-26V221.7h152V375c0,1.7,0.9,3.3,2.5,4c1.5,0.8,3.3,0.7,4.7-0.3l48.5-34.3l48.5,34.3c0.8,0.6,1.7,0.8,2.6,0.8    c0.7,0,1.4-0.2,2.1-0.5c1.5-0.8,2.5-2.3,2.5-4V221.7h152V476.9z M496.3,196.3c0,8.9-7.3,16.2-16.2,16.2H311.6v-76.9h168.4    c8.9,0,16.2,7.3,16.2,16.2V196.3z"/>
</g>
</g>
</svg>