<?xml version="1.0" encoding="iso-8859-1"?>
<!-- Uploaded to: SVG Repo, www.svgrepo.com, Generator: SVG Repo Mixer Tools -->
<svg xmlns="http://www.w3.org/2000/svg" xmlns:xlink="http://www.w3.org/1999/xlink" version="1.1" id="Capa_1"  viewBox="0 0 462.5 462.5" xml:space="preserve" width="512" height="512">
<g>
	<path style="fill:#E44670;" d="M366.25,127.5h-15v-50c0-34.462-28.038-62.5-62.5-62.5s-62.5,28.038-62.5,62.5v50h-15v-50   c0-42.734,34.766-77.5,77.5-77.5s77.5,34.766,77.5,77.5V127.5z"/>
	<path style="fill:#FF6288;" d="M261.25,127.5h-15v-50c0-34.462-28.038-62.5-62.5-62.5s-62.5,28.038-62.5,62.5v50h-15v-50   c0-42.734,34.766-77.5,77.5-77.5s77.5,34.766,77.5,77.5V127.5z"/>
	<polygon style="fill:#FFC5BB;" points="288.75,107.5 302.5,285 288.75,462.5 48.75,462.5 48.75,107.5  "/>
	<polygon style="fill:#FFA4A9;" points="318.75,107.5 338.75,285 318.75,462.5 288.75,462.5 288.75,107.5  "/>
	<polygon style="fill:#FF6288;" points="318.75,107.5 318.75,462.5 386.25,442.5 366.25,107.5  "/>
	<polygon style="fill:#E44670;" points="366.25,107.5 366.25,442.5 413.75,462.5 413.75,107.5  "/>
	<polygon style="fill:#FFC5BB;" points="366.25,422.5 318.75,462.5 413.75,462.5  "/>
	<path style="fill:#E44670;" d="M224.562,205.189c-1.899,0-3.765,0.117-5.6,0.339l-35.148,159.25   c2.652-1.464,87.436-48.544,87.436-112.902C271.25,226.094,250.345,205.189,224.562,205.189z"/>
	<path style="fill:#FF6288;" d="M218.962,205.529c17.511,2.8,31.076,22.485,31.076,46.348c0,64.199-63.923,111.215-66.224,112.902   c-0.042,0.021-0.064,0.032-0.064,0.032s-87.5-47.558-87.5-112.933c0-25.783,20.894-46.688,46.677-46.688   c17.585,0,32.858,9.736,40.823,24.086C190.845,216.474,203.774,207.342,218.962,205.529z"/>
</g>















</svg>